# xmcd CD database file
#
# Track frame offsets:
#	150
#	6653
#	27945
#	43835
#	64650
#	80068
#	92417
#	110512
#	130406
#	143816
#	164558
#	183460
#	198493
#	212721
#	232338
#
# Disc length: 3182 seconds
#
# Revision: 0
# Processed by: cddbd v1.5.2PL0 Copyright (c) Steve Scherf et al.
# Submitted via: CDex 1.70beta2
#
DISCID=e10c6c0f
DTITLE=Kamarádi Staré řeky - Kamarádi Staré řeky
DYEAR=1900
DGENRE=Country
TTITLE0=Stará řeka
TTITLE1=Osado zpívej
TTITLE2=Pojď děvče
TTITLE3=Hvězda Loo
TTITLE4=Sklepnice hezká
TTITLE5=Kačák
TTITLE6=Tam na Aljašku
TTITLE7=Bílé skály
TTITLE8=Jimmyho vlak
TTITLE9=Margareta
TTITLE10=Telátka
TTITLE11=Zelený kruh
TTITLE12=Údolí
TTITLE13=nezapomínejte kamarádi
TTITLE14=Stará řeka
EXTD=
EXTT0=
EXTT1=
EXTT2=
EXTT3=
EXTT4=
EXTT5=
EXTT6=
EXTT7=
EXTT8=
EXTT9=
EXTT10=
EXTT11=
EXTT12=
EXTT13=
EXTT14=
PLAYORDER=
